<svg width="96" height="26" viewBox="0 0 96 26" fill="none" xmlns="http://www.w3.org/2000/svg">
<g clip-path="url(#clip0_9_77)">
<g filter="url(#filter0_i_9_77)">
<path d="M11.7637 0.998413V24.4608" stroke="black" stroke-width="2" stroke-linecap="round"/>
<path d="M11.7637 17.9712C9.7894 17.9712 7.43189 20.0624 5.9183 21.3238C5.86192 21.3708 5.80393 21.4181 5.74422 21.4656C3.23613 23.4624 5.74422 24.96 7.75072 24.96C9.75719 24.96 11.7637 24.96 11.7637 24.96" stroke="black" stroke-width="2" stroke-linecap="round"/>
<path d="M11.7637 0C11.2096 0 10.7604 0.446999 10.7604 0.9984C10.7604 1.5498 11.2096 1.9968 11.7637 1.9968V0ZM46.877 1.9968H47.8802V0H46.877V1.9968ZM11.7637 1.9968H29.3203V0H11.7637V1.9968ZM29.3203 1.9968H46.877V0H29.3203V1.9968Z" fill="black"/>
<path d="M11.7637 4.992H46.877" stroke="black" stroke-width="2" stroke-linecap="square"/>
<path d="M11.7637 8.9856H46.877" stroke="black" stroke-width="2" stroke-linecap="square"/>
<path d="M11.7637 12.9792H46.877" stroke="black" stroke-width="2" stroke-linecap="square"/>
<path d="M35.8414 0.998413V24.4608" stroke="black" stroke-width="2" stroke-linecap="round"/>
<path d="M35.8414 17.9712C33.8671 17.9712 31.5096 20.0624 29.996 21.3238C29.9396 21.3708 29.8816 21.4181 29.822 21.4656C27.3139 23.4624 29.822 24.96 31.8284 24.96C33.8349 24.96 35.8414 24.96 35.8414 24.96" stroke="black" stroke-width="2" stroke-linecap="round"/>
<path d="M83.9968 0.998413V24.4608" stroke="black" stroke-width="2" stroke-linecap="round"/>
<path d="M83.9968 17.9712C82.0225 17.9712 79.665 20.0624 78.1514 21.3238C78.0951 21.3708 78.0371 21.4181 77.9774 21.4656C75.4693 23.4624 77.9774 24.96 79.9839 24.96C81.9903 24.96 83.9968 24.96 83.9968 24.96" stroke="black" stroke-width="2" stroke-linecap="round"/>
<path d="M48.8835 0H47.8802V1.9968H48.8835V0ZM83.9968 1.9968C84.5509 1.9968 85 1.5498 85 0.9984C85 0.446999 84.5509 0 83.9968 0V1.9968ZM48.8835 1.9968H71.9579V0H48.8835V1.9968ZM71.9579 1.9968H83.9968V0H71.9579V1.9968Z" fill="black"/>
<path d="M48.8835 4.992H83.9968" stroke="black" stroke-width="2" stroke-linecap="square"/>
<path d="M48.8835 8.9856H83.9968" stroke="black" stroke-width="2" stroke-linecap="square"/>
<path d="M48.8835 12.9792H83.9968" stroke="black" stroke-width="2" stroke-linecap="square"/>
<path d="M59.9191 0.998413V24.4608" stroke="black" stroke-width="2" stroke-linecap="round"/>
<path d="M59.9191 17.9712C57.9448 17.9712 55.5873 20.0624 54.0737 21.3238C54.0173 21.3708 53.9593 21.4181 53.8996 21.4656C51.3916 23.4624 53.8996 24.96 55.9061 24.96C57.9126 24.96 59.9191 24.96 59.9191 24.96" stroke="black" stroke-width="2" stroke-linecap="round"/>
</g>
</g>
<defs>
<filter id="filter0_i_9_77" x="3.69189" y="-0.00158691" width="81.3081" height="29.9616" filterUnits="userSpaceOnUse" color-interpolation-filters="sRGB">
<feFlood flood-opacity="0" result="BackgroundImageFix"/>
<feBlend mode="normal" in="SourceGraphic" in2="BackgroundImageFix" result="shape"/>
<feColorMatrix in="SourceAlpha" type="matrix" values="0 0 0 0 0 0 0 0 0 0 0 0 0 0 0 0 0 0 127 0" result="hardAlpha"/>
<feOffset dy="4"/>
<feGaussianBlur stdDeviation="2"/>
<feComposite in2="hardAlpha" operator="arithmetic" k2="-1" k3="1"/>
<feColorMatrix type="matrix" values="0 0 0 0 0 0 0 0 0 0 0 0 0 0 0 0 0 0 0.25 0"/>
<feBlend mode="normal" in2="shape" result="effect1_innerShadow_9_77"/>
</filter>
<clipPath id="clip0_9_77">
<rect width="96" height="26" fill="white"/>
</clipPath>
</defs>
</svg>
